<svg width="364" height="90" viewBox="0 0 364 90" xmlns="http://www.w3.org/2000/svg"><title>solidus-dark-logo</title><g fill="none" fill-rule="evenodd"><path d="M.34.34C18.77.27 37.21.27 55.64.35c.04 29.75.08 59.51-.02 89.26-18.42.06-36.84.06-55.26 0C.22 59.86.27 30.1.34.34z" fill="#EB8F35"/><path d="M175.54 1.06c4.74 1.93 9.69 4.32 12.79 8.55 2.65 3.56 2.5 8.15 2.68 12.36.04 9.36 0 18.72-.01 28.08.08 2.39-.02 4.9.92 7.16 2.09 2.76 5.48 4.06 8.34 5.86-1.41 2.67-2.87 5.32-4.48 7.88-4.87-2.35-10.12-4.86-13.1-9.6-2.62-4.31-2.04-9.54-2.09-14.35-.06-9.6.15-19.2-.1-28.8.09-5.22-5.52-7.16-9.19-9.49 1.36-2.58 2.79-5.12 4.24-7.65zM8.11 8.12c13.25-.13 26.52-.13 39.77-.01.1 24.57.18 49.15-.04 73.71-13.24.21-26.49.15-39.74.04-.23-24.58-.23-49.17.01-73.74zm200.36 1.12c3.09-1.78 7.54 1.19 7.07 4.75.19 4.36-6.13 6.55-8.73 3.12-2.38-2.31-1.25-6.57 1.66-7.87zm53.91-.43c3.32-.13 6.63-.14 9.95-.08.08 20.8.12 41.61-.02 62.42-3.26.08-6.52.07-9.77-.05l-.33-4.58c-6.05 3.52-13.24 5.51-20.23 4.18-10.29-1.19-19.14-9.56-21.07-19.71-2.69-12.09 5.61-25.18 17.5-28.32 8.03-2.55 16.78-.73 23.92 3.46.1-5.77 0-11.55.05-17.32z" fill="#2D2B28"/><path d="M20.24 18.18c4.93 2.09 10.56 5.33 11.29 11.19.66 9.85-.31 19.76.39 29.6.12 3.93 4.36 5.24 7.02 7.24a74.82 74.82 0 0 1-3.14 5.77C30.82 70 25.08 66.71 24.44 60.81c-.47-8.94.07-17.91-.17-26.86-.12-1.78-.21-3.63-.96-5.27-1.82-1.93-4.16-3.26-6.33-4.75 1.05-1.94 2.14-3.85 3.26-5.75z" fill="#EB8F35"/><path d="M84.42 27.43c3.37-3.84 8.56-5.57 13.54-5.87 7.14-.38 14.12 2.33 19.86 6.45-1.77 2.39-3.59 4.76-5.59 6.96-5.22-3.79-12.54-7.33-18.69-3.51-2.98 1.48-4 6.08-.83 7.92 6.32 2.77 13.61 2.23 19.96 4.97 3.76 1.66 6.83 5.39 6.86 9.61.69 6.91-4.31 13.44-10.72 15.61-10.29 3.64-22.04.49-30.08-6.62 1.9-2.49 4.1-4.71 6.37-6.86 4.99 3.87 11.01 7.57 17.62 6.39 3.81-.36 8.49-3.99 6.32-8.19-2.32-2.96-6.44-2.91-9.79-3.7-5.51-1.04-11.49-2.13-15.75-6.07-4.47-4.75-3.29-12.58.92-17.09zm57.04-4.72c7.13-2.17 15.15-1.38 21.68 2.23 7.14 4.03 12.18 11.77 12.42 20.03.55 7.53-2.8 15.2-8.56 20.05-10.01 8.43-26.5 8.16-35.83-1.19-5.99-5.72-8.91-14.65-6.92-22.75 1.9-8.6 8.69-15.99 17.21-18.37zm136.07-1.07c3.39-.04 6.79-.24 10.16.22-.15 9.07-.05 18.14-.07 27.21-.24 5.83 4.35 11.71 10.42 11.76 5.97.86 11.65-3.81 12.28-9.75.5-9.84-.35-19.74.41-29.57 3.15.55 7.07-.85 9.75.78.19 9.25.02 18.51.07 27.76.05 5.63-2.23 11.28-6.38 15.12-7.52 7.36-20.5 7.84-28.71 1.37-5.06-3.88-8.03-10.16-7.96-16.52-.01-9.46-.05-18.92.03-28.38zm54.75 2.71c9.44-5.25 21.15-2.18 29.48 3.81-1.83 2.35-3.65 4.71-5.65 6.92-3.21-2.01-6.46-4.32-10.31-4.82-3.69-.59-8.08.04-10.45 3.23-1.63 2.08-.66 5.36 1.8 6.3 7.04 2.81 15.4 1.79 21.87 6.16 4.4 2.95 5.58 9.06 3.76 13.82-2.04 5.93-7.79 10.02-13.86 10.93-9.39 1.99-19.32-1.41-26.36-7.72 2.07-2.35 4.25-4.59 6.48-6.78 3.82 3.04 8.08 5.97 13.08 6.48 3.94.5 8.61-.4 10.89-3.98 1.49-2.92-1-6.1-3.91-6.68-7.47-2.08-16.45-1.9-22.13-7.96-5.11-6.3-1.39-16.15 5.31-19.71zm-126.7 4.8c3.43-.02 6.86-.04 10.28.13.33 9.24.06 18.48.15 27.72-.05 4.65.28 9.34-.51 13.95-3.27.35-6.58.28-9.86.19-.13-14-.03-27.99-.06-41.99z" fill="#2D2B28"/><path d="M146.37 31.46c6.65-1.48 14.21 1.79 17.06 8.12 3.52 7.07.72 16.86-6.62 20.25-7.51 4-18.15.64-21.21-7.51-3.74-8.35 1.48-19.42 10.77-20.86zm96.05.19c7.37-2.07 16.07 2 18.43 9.46 2.78 7.4-1.07 16.52-8.57 19.28-7.3 3.04-16.81-.35-19.85-7.82-3.59-8.17.92-19.05 9.99-20.92z" fill="#FFF"/></g></svg>